PathFileType	4	(X/Y/Z)	C:/Users/opensim2020/Desktop/walking_exp_matlab/subject01_walking13_straight_01.trc	
DataRate	CameraRate	NumFrames	NumMarkers	Units	OrigDataRate	OrigDataStartFrame	OrigNumFrames	
100.00	100.00	4	42	mm	100.00	637	142	
Frame#	Time	LFHD			RFHD			LBHD			RBHD			C7			T10			CLAV			STRN			RBAK			LSHO			LUPA			LELB			LFRM			LWRA			LWRB			LFIN			RSHO			RUPA			RELB			RFRM			RWRA			RWRB			RFIN			LASI			RASI			LPSI			RPSI			LTHI			LKNE			LTIB			LANK			LHEE			LTOE			RTHI			RKNE			RTIB			RANK			RHEE			RTOE			*39			*40			*41			
		X1	Y1	Z1	X2	Y2	Z2	X3	Y3	Z3	X4	Y4	Z4	X5	Y5	Z5	X6	Y6	Z6	X7	Y7	Z7	X8	Y8	Z8	X9	Y9	Z9	X10	Y10	Z10	X11	Y11	Z11	X12	Y12	Z12	X13	Y13	Z13	X14	Y14	Z14	X15	Y15	Z15	X16	Y16	Z16	X17	Y17	Z17	X18	Y18	Z18	X19	Y19	Z19	X20	Y20	Z20	X21	Y21	Z21	X22	Y22	Z22	X23	Y23	Z23	X24	Y24	Z24	X25	Y25	Z25	X26	Y26	Z26	X27	Y27	Z27	X28	Y28	Z28	X29	Y29	Z29	X30	Y30	Z30	X31	Y31	Z31	X32	Y32	Z32	X33	Y33	Z33	X34	Y34	Z34	X35	Y35	Z35	X36	Y36	Z36	X37	Y37	Z37	X38	Y38	Z38	X39	Y39	Z39	X40	Y40	Z40	X41	Y41	Z41	X42	Y42	Z42	

36	0.350	-1072.27844	-240.57732	1679.82373	-960.56116	-221.76828	1683.53467	-1060.11792	-353.99353	1629.68127	-940.70233	-336.75201	1631.78040	-1019.00330	-381.78690	1439.05884	-1008.13965	-423.89764	1147.40308	-1024.03589	-238.12662	1370.28076	-1034.05237	-197.97975	1214.24670	-938.41180	-437.37985	1245.79504	-1179.93921	-310.39050	1402.18481	-1274.32080	-349.36377	1229.49353	-1301.25879	-351.90164	1078.04773	-1322.09619	-263.82825	997.31836	-1298.39270	-139.20285	940.16144	-1323.37061	-182.08055	906.71808	-1334.54224	-105.79838	874.09662	-870.46448	-296.74301	1398.09546	-764.75128	-361.06290	1203.71997	-763.05078	-370.83853	1077.39551	-740.00098	-343.49908	958.00964	-773.09583	-269.48132	840.12604	-729.31464	-307.24866	840.62537	-736.03345	-271.44522	762.80859	-1126.73877	-267.25528	931.04620	-910.23950	-252.83261	935.54248	-1063.82898	-447.78964	953.33380	-918.67072	-438.41974	959.54517	-1202.63293	-282.95709	603.31030	-1200.63721	-290.02475	470.09738	-1202.55200	-443.37659	367.33078	-1146.01050	-616.92426	237.90607	-1084.24512	-656.45978	248.80589	-1170.51880	-576.36029	96.02840	-861.19452	-298.25925	602.32019	-894.57825	-277.86130	445.73880	-893.55164	-328.68118	276.70395	-950.95300	-353.56705	75.36549	-1000.56323	-404.70023	39.74483	-953.47583	-213.94904	34.11390	-981.50366	-235.96944	1716.91626	-3101.80640	1973.15784	1023.64526	-3140.71899	2012.57190	1022.14911 
37	0.360	-1071.96191	-227.28310	1680.52881	-960.18842	-208.33484	1684.18726	-1059.55432	-340.97946	1631.07117	-940.11981	-323.57010	1633.18762	-1018.08795	-369.84036	1440.49036	-1006.97882	-412.09439	1148.55469	-1023.52094	-226.14938	1371.11719	-1033.44995	-186.24364	1215.14893	-937.23438	-425.64389	1247.24817	-1179.31091	-298.87247	1403.31226	-1272.89160	-339.47110	1230.41467	-1298.76648	-343.94440	1078.88525	-1319.82629	-258.14285	995.84015	-1296.50940	-135.07782	935.18457	-1321.21265	-179.06807	902.90112	-1332.26099	-103.75089	867.93774	-869.77521	-284.20523	1399.39404	-763.52191	-347.46097	1204.81714	-761.45782	-356.27255	1078.24426	-739.43274	-325.78278	959.22937	-773.61334	-248.73105	843.71649	-729.79382	-286.49103	842.91553	-736.60791	-248.16908	766.34485	-1125.59705	-255.14894	932.60596	-908.85944	-241.46378	936.07184	-1063.57629	-435.75406	954.84991	-918.35004	-427.28165	960.28082	-1202.47791	-263.77420	606.45172	-1200.47339	-267.23126	473.34552	-1200.92004	-418.77942	368.64063	-1143.81616	-589.07483	234.45509	-1081.97046	-629.64215	243.17703	-1168.81519	-541.97620	95.08517	-861.20001	-291.78580	602.64612	-894.02789	-274.69104	445.78717	-893.47968	-327.55457	277.40271	-951.09113	-353.23303	76.13870	-1000.80005	-404.60065	41.17887	-953.51868	-213.82539	34.00080	-981.22797	-222.36383	1717.70618	-3101.94775	1973.13000	1023.54443	-3140.63403	2012.50989	1022.16620 
38	0.370	-1071.60083	-213.94666	1681.02905	-960.02026	-194.81313	1684.71460	-1059.06677	-327.88950	1632.29480	-939.65723	-310.31430	1634.45679	-1017.12830	-357.83179	1441.51758	-1005.87073	-400.38751	1149.54712	-1023.04742	-214.15736	1371.90405	-1032.84460	-174.53943	1215.87695	-936.05182	-413.52408	1248.33508	-1178.57104	-287.35583	1404.23315	-1271.47986	-329.54196	1231.13574	-1296.27966	-335.97769	1079.59766	-1317.51746	-252.55725	994.30457	-1294.73364	-131.21921	930.17218	-1319.17346	-176.05005	899.27533	-1330.52759	-102.07748	862.01965	-869.08313	-271.86615	1400.36743	-762.37305	-334.05164	1205.76526	-759.95685	-341.86639	1078.86890	-738.82672	-308.09647	960.37177	-773.95868	-227.56767	847.50220	-730.11938	-265.19821	845.25073	-737.28076	-224.79881	770.11981	-1124.47803	-243.19531	934.20978	-907.62225	-230.32106	936.37451	-1063.42371	-424.01584	956.11584	-918.16901	-416.24304	961.32721	-1202.28052	-245.13364	609.52661	-1199.91968	-245.15993	476.55222	-1199.08459	-394.40192	369.49088	-1141.85620	-560.46326	229.38081	-1079.95691	-601.78241	236.20868	-1167.44971	-505.94577	93.13364	-860.94067	-285.33347	602.99017	-894.09985	-271.61365	445.86517	-893.52869	-325.99515	277.98270	-951.28540	-353.00977	76.60616	-1000.98120	-404.31726	42.35769	-953.25421	-213.65190	34.22378	-981.00140	-208.65807	1718.31116	-3101.92383	1973.06677	1023.52893	-3140.72656	2012.47778	1022.01605 
39	0.380	-1071.43604	-200.58461	1681.38245	-959.86682	-181.25761	1685.16235	-1058.60364	-314.72116	1633.29089	-939.29834	-297.12854	1635.62158	-1016.27386	-345.57394	1442.24365	-1004.79095	-388.69910	1150.44971	-1022.57288	-202.23509	1372.50635	-1032.25818	-162.87927	1216.50708	-934.86615	-401.43338	1249.29553	-1177.99719	-275.87964	1404.98291	-1270.17041	-319.48828	1231.73474	-1293.78333	-328.08640	1080.16870	-1315.25708	-247.04169	992.75281	-1293.01953	-127.44482	925.16919	-1317.28674	-173.42369	895.66107	-1328.36438	-100.55695	855.70184	-868.53748	-259.34872	1401.13013	-761.31262	-320.95261	1206.53979	-758.58203	-327.59058	1079.37854	-738.38257	-291.05389	961.32544	-774.24677	-206.21342	851.83173	-730.69379	-244.77840	847.87238	-738.08899	-201.52173	774.14160	-1123.36951	-231.27252	935.76709	-906.26965	-218.93988	936.66394	-1063.17920	-412.14081	957.58221	-918.03717	-404.97504	961.93744	-1202.33667	-227.11591	612.62469	-1199.59045	-223.99582	479.86679	-1197.46631	-370.33383	369.98328	-1140.16052	-530.88605	222.97087	-1078.24512	-572.97070	227.50980	-1165.63538	-469.18668	90.26275	-860.84595	-278.67816	603.33978	-893.80658	-268.25058	446.07260	-893.59003	-323.87402	278.78311	-951.48364	-352.39786	77.56118	-1001.29816	-404.24591	43.92434	-953.22791	-213.53757	34.19017	-980.90289	-194.93544	1718.77209	-3101.94800	1973.10181	1023.53900	-3140.75464	2012.50452	1022.09271 
